<svg width="701" height="337" viewBox="0 0 701 337" fill="none" xmlns="http://www.w3.org/2000/svg">
<path d="M155.677 51.1106C204.228 -53.1746 243.407 69.5844 267.623 117.021C302.043 184.448 387.301 244.6 184.971 265.011C-17.3584 285.422 94.9891 181.467 155.677 51.1106Z" fill="#E2E9F0"/>
<g filter="url(#filter0_b_155_317)">
<rect x="197" y="24" width="504" height="224" rx="24" fill="#FEFEFE" fill-opacity="0.1"/>
<path d="M307 87.3334H317C319.189 87.3334 321.356 87.7645 323.378 88.602C325.4 89.4396 327.238 90.6673 328.785 92.2149C330.333 93.7626 331.56 95.5999 332.398 97.622C333.236 99.6441 333.667 101.811 333.667 104C333.667 106.189 333.236 108.356 332.398 110.378C331.56 112.4 330.333 114.238 328.785 115.785C327.238 117.333 325.4 118.56 323.378 119.398C321.356 120.236 319.189 120.667 317 120.667H307M287 120.667H277C274.811 120.667 272.644 120.236 270.622 119.398C268.6 118.56 266.763 117.333 265.215 115.785C262.089 112.66 260.333 108.42 260.333 104C260.333 99.5798 262.089 95.3405 265.215 92.2149C268.341 89.0893 272.58 87.3334 277 87.3334H287" stroke="#141414" stroke-width="2" stroke-linecap="round" stroke-linejoin="round"/>
<path d="M283.667 104H310.333" stroke="#141414" stroke-width="2" stroke-linecap="round" stroke-linejoin="round"/>
<path d="M379 87.3334H389C391.189 87.3334 393.356 87.7645 395.378 88.602C397.4 89.4396 399.238 90.6673 400.785 92.2149C402.333 93.7626 403.56 95.5999 404.398 97.622C405.236 99.6441 405.667 101.811 405.667 104C405.667 106.189 405.236 108.356 404.398 110.378C403.56 112.4 402.333 114.238 400.785 115.785C399.238 117.333 397.4 118.56 395.378 119.398C393.356 120.236 391.189 120.667 389 120.667H379M359 120.667H349C346.811 120.667 344.644 120.236 342.622 119.398C340.6 118.56 338.763 117.333 337.215 115.785C334.089 112.66 332.333 108.42 332.333 104C332.333 99.5798 334.089 95.3405 337.215 92.2149C340.341 89.0893 344.58 87.3334 349 87.3334H359" stroke="#141414" stroke-width="2" stroke-linecap="round" stroke-linejoin="round"/>
<path d="M355.667 104H382.333" stroke="#141414" stroke-width="2" stroke-linecap="round" stroke-linejoin="round"/>
<path d="M451 87.3334H461C463.189 87.3334 465.356 87.7645 467.378 88.602C469.4 89.4396 471.238 90.6673 472.785 92.2149C474.333 93.7626 475.56 95.5999 476.398 97.622C477.236 99.6441 477.667 101.811 477.667 104C477.667 106.189 477.236 108.356 476.398 110.378C475.56 112.4 474.333 114.238 472.785 115.785C471.238 117.333 469.4 118.56 467.378 119.398C465.356 120.236 463.189 120.667 461 120.667H451M431 120.667H421C418.811 120.667 416.644 120.236 414.622 119.398C412.6 118.56 410.763 117.333 409.215 115.785C406.089 112.66 404.333 108.42 404.333 104C404.333 99.5798 406.089 95.3405 409.215 92.2149C412.341 89.0893 416.58 87.3334 421 87.3334H431" stroke="#141414" stroke-width="2" stroke-linecap="round" stroke-linejoin="round"/>
<path d="M427.667 104H454.333" stroke="#141414" stroke-width="2" stroke-linecap="round" stroke-linejoin="round"/>
<path d="M501 103C500.448 103 500 103.448 500 104C500 104.552 500.448 105 501 105V103ZM541 104L531 98.2265V109.774L541 104ZM501 105H532V103H501V105Z" fill="#005AE2"/>
<path d="M611 87.3334H621C623.189 87.3334 625.356 87.7645 627.378 88.602C629.4 89.4396 631.238 90.6673 632.785 92.2149C634.333 93.7626 635.56 95.5999 636.398 97.622C637.236 99.6441 637.667 101.811 637.667 104C637.667 106.189 637.236 108.356 636.398 110.378C635.56 112.4 634.333 114.238 632.785 115.785C631.238 117.333 629.4 118.56 627.378 119.398C625.356 120.236 623.189 120.667 621 120.667H611M591 120.667H581C578.811 120.667 576.644 120.236 574.622 119.398C572.6 118.56 570.763 117.333 569.215 115.785C566.089 112.66 564.333 108.42 564.333 104C564.333 99.5798 566.089 95.3405 569.215 92.2149C572.341 89.0893 576.58 87.3334 581 87.3334H591" stroke="#141414" stroke-width="2" stroke-linecap="round" stroke-linejoin="round"/>
<path d="M587.667 104H614.333" stroke="#141414" stroke-width="2" stroke-linecap="round" stroke-linejoin="round"/>
<path d="M274.558 176.208C272.462 176.208 270.91 175.168 270.318 173.456L271.598 172.72C272.03 174.08 273.038 174.752 274.59 174.752C276.126 174.752 276.958 174.064 276.958 173.024C276.958 172.496 276.75 172.096 276.35 171.824C275.95 171.552 275.262 171.28 274.318 170.976L273.246 170.624C273.006 170.528 272.686 170.384 272.318 170.208C271.95 170.016 271.678 169.824 271.502 169.632C271.134 169.232 270.798 168.576 270.798 167.76C270.798 166.784 271.134 166.016 271.822 165.456C272.51 164.88 273.342 164.592 274.318 164.592C276.094 164.592 277.454 165.568 278.11 167.04L276.862 167.76C276.382 166.608 275.534 166.032 274.318 166.032C273.102 166.032 272.286 166.672 272.286 167.696C272.286 168.192 272.462 168.56 272.814 168.816C273.166 169.072 273.774 169.344 274.638 169.616L275.294 169.824C275.422 169.872 275.614 169.936 275.886 170.048C276.446 170.256 276.574 170.336 277.006 170.576C277.454 170.816 277.598 170.992 277.87 171.312C278.27 171.712 278.43 172.288 278.43 172.992C278.43 173.968 278.078 174.752 277.358 175.344C276.638 175.92 275.71 176.208 274.558 176.208ZM287.916 172.64H281.212C281.484 174.064 282.588 174.896 284.108 174.896C285.164 174.896 285.932 174.512 286.412 173.728L287.596 174.4C286.812 175.6 285.644 176.208 284.076 176.208C282.812 176.208 281.772 175.808 280.972 175.024C280.188 174.224 279.788 173.216 279.788 172C279.788 170.8 280.172 169.792 280.956 168.992C281.74 168.192 282.748 167.792 283.98 167.792C285.148 167.792 286.108 168.208 286.844 169.04C287.596 169.856 287.964 170.848 287.964 172.016C287.964 172.224 287.948 172.432 287.916 172.64ZM283.98 169.104C282.492 169.104 281.452 170.016 281.212 171.424H286.556C286.316 169.904 285.26 169.104 283.98 169.104ZM296.172 169.376V168H297.564V176H296.172V174.624C295.484 175.68 294.476 176.208 293.148 176.208C292.028 176.208 291.068 175.808 290.284 174.992C289.5 174.176 289.1 173.168 289.1 172C289.1 170.832 289.5 169.84 290.284 169.024C291.068 168.208 292.028 167.792 293.148 167.792C294.476 167.792 295.484 168.32 296.172 169.376ZM293.324 174.864C294.14 174.864 294.812 174.592 295.356 174.048C295.9 173.488 296.172 172.816 296.172 172C296.172 171.184 295.9 170.512 295.356 169.968C294.812 169.408 294.14 169.136 293.324 169.136C292.524 169.136 291.852 169.408 291.308 169.968C290.764 170.512 290.492 171.184 290.492 172C290.492 172.816 290.764 173.488 291.308 174.048C291.852 174.592 292.524 174.864 293.324 174.864ZM308.313 167.792C310.105 167.792 311.321 169.04 311.321 171.024V176H309.929V171.072C309.929 169.84 309.241 169.12 308.169 169.12C306.969 169.12 306.201 169.904 306.201 171.552V176H304.809V171.072C304.809 169.84 304.153 169.12 303.113 169.12C301.945 169.12 301.065 169.936 301.065 171.552V176H299.673V168H301.065V169.072C301.609 168.224 302.409 167.792 303.449 167.792C304.521 167.792 305.305 168.24 305.801 169.152C306.361 168.24 307.193 167.792 308.313 167.792ZM314.643 176H313.251V164.32H314.643V176ZM324.447 172.64H317.743C318.015 174.064 319.119 174.896 320.639 174.896C321.695 174.896 322.463 174.512 322.943 173.728L324.127 174.4C323.343 175.6 322.175 176.208 320.607 176.208C319.343 176.208 318.303 175.808 317.503 175.024C316.719 174.224 316.319 173.216 316.319 172C316.319 170.8 316.703 169.792 317.487 168.992C318.271 168.192 319.279 167.792 320.511 167.792C321.679 167.792 322.639 168.208 323.375 169.04C324.127 169.856 324.495 170.848 324.495 172.016C324.495 172.224 324.479 172.432 324.447 172.64ZM320.511 169.104C319.023 169.104 317.983 170.016 317.743 171.424H323.087C322.847 169.904 321.791 169.104 320.511 169.104ZM326.983 170.16C326.983 170.784 327.687 171.12 328.567 171.36C329.815 171.632 331.479 172.096 331.463 173.808C331.463 174.528 331.175 175.12 330.615 175.552C330.055 175.984 329.351 176.208 328.471 176.208C326.919 176.208 325.751 175.472 325.287 174.336L326.487 173.648C326.743 174.416 327.495 174.896 328.471 174.896C329.383 174.896 330.055 174.56 330.055 173.808C330.055 173.184 329.351 172.832 328.471 172.624C327.207 172.288 325.575 171.872 325.575 170.176C325.575 169.488 325.847 168.912 326.375 168.464C326.919 168.016 327.591 167.792 328.407 167.792C329.703 167.792 330.775 168.416 331.287 169.456L330.119 170.112C329.831 169.424 329.255 169.088 328.407 169.088C327.623 169.088 326.983 169.472 326.983 170.16ZM333.811 170.16C333.811 170.784 334.515 171.12 335.395 171.36C336.643 171.632 338.307 172.096 338.291 173.808C338.291 174.528 338.003 175.12 337.443 175.552C336.883 175.984 336.179 176.208 335.299 176.208C333.747 176.208 332.579 175.472 332.115 174.336L333.315 173.648C333.571 174.416 334.323 174.896 335.299 174.896C336.211 174.896 336.883 174.56 336.883 173.808C336.883 173.184 336.179 172.832 335.299 172.624C334.035 172.288 332.403 171.872 332.403 170.176C332.403 169.488 332.675 168.912 333.203 168.464C333.747 168.016 334.419 167.792 335.235 167.792C336.531 167.792 337.603 168.416 338.115 169.456L336.947 170.112C336.659 169.424 336.083 169.088 335.235 169.088C334.451 169.088 333.811 169.472 333.811 170.16ZM341.253 176H339.861V164.32H341.253V176ZM346.656 174.272L348.96 168H350.448L347.184 176.496C346.496 178.304 345.232 179.312 343.632 179.2V177.904C344.608 177.984 345.328 177.44 345.792 176.272L345.936 175.968L342.448 168H343.936L346.656 174.272ZM359.963 168V169.344H357.835V173.68C357.835 174.912 358.539 174.816 359.963 174.752V176C357.531 176.32 356.443 175.664 356.443 173.68V169.344H354.859V168H356.443V166.176L357.835 165.76V168H359.963ZM363.05 168V169.344C363.514 168.352 364.346 167.856 365.546 167.856V169.312C364.858 169.28 364.282 169.456 363.786 169.856C363.29 170.256 363.05 170.88 363.05 171.76V176H361.658V168H363.05ZM373.094 169.376V168H374.486V176H373.094V174.624C372.406 175.68 371.398 176.208 370.07 176.208C368.95 176.208 367.99 175.808 367.206 174.992C366.422 174.176 366.022 173.168 366.022 172C366.022 170.832 366.422 169.84 367.206 169.024C367.99 168.208 368.95 167.792 370.07 167.792C371.398 167.792 372.406 168.32 373.094 169.376ZM370.246 174.864C371.062 174.864 371.734 174.592 372.278 174.048C372.822 173.488 373.094 172.816 373.094 172C373.094 171.184 372.822 170.512 372.278 169.968C371.734 169.408 371.062 169.136 370.246 169.136C369.446 169.136 368.774 169.408 368.23 169.968C367.686 170.512 367.414 171.184 367.414 172C367.414 172.816 367.686 173.488 368.23 174.048C368.774 174.592 369.446 174.864 370.246 174.864ZM380.579 167.792C382.451 167.792 383.683 169.056 383.683 171.088V176H382.291V171.168C382.291 169.872 381.539 169.12 380.307 169.12C378.915 169.12 377.987 169.968 377.987 171.76V176H376.595V168H377.987V169.152C378.547 168.24 379.411 167.792 380.579 167.792ZM386.826 170.16C386.826 170.784 387.53 171.12 388.41 171.36C389.658 171.632 391.322 172.096 391.306 173.808C391.306 174.528 391.018 175.12 390.458 175.552C389.898 175.984 389.194 176.208 388.314 176.208C386.762 176.208 385.594 175.472 385.13 174.336L386.33 173.648C386.586 174.416 387.338 174.896 388.314 174.896C389.226 174.896 389.898 174.56 389.898 173.808C389.898 173.184 389.194 172.832 388.314 172.624C387.05 172.288 385.418 171.872 385.418 170.176C385.418 169.488 385.69 168.912 386.218 168.464C386.762 168.016 387.434 167.792 388.25 167.792C389.546 167.792 390.618 168.416 391.13 169.456L389.962 170.112C389.674 169.424 389.098 169.088 388.25 169.088C387.466 169.088 386.826 169.472 386.826 170.16ZM396.895 164.592V165.936C395.487 165.824 394.783 166.432 394.783 167.76V168H396.895V169.344H394.783V176H393.391V169.344H392.111V168H393.391V167.76C393.391 165.6 394.639 164.448 396.895 164.592ZM404.269 174.992C403.453 175.808 402.445 176.208 401.277 176.208C400.109 176.208 399.101 175.808 398.285 174.992C397.469 174.176 397.069 173.184 397.069 172C397.069 170.816 397.469 169.824 398.285 169.008C399.101 168.192 400.109 167.792 401.277 167.792C402.445 167.792 403.453 168.192 404.269 169.008C405.085 169.824 405.501 170.816 405.501 172C405.501 173.184 405.085 174.176 404.269 174.992ZM401.277 174.848C402.077 174.848 402.749 174.576 403.293 174.032C403.837 173.488 404.109 172.816 404.109 172C404.109 171.184 403.837 170.512 403.293 169.968C402.749 169.424 402.077 169.152 401.277 169.152C400.493 169.152 399.821 169.424 399.277 169.968C398.733 170.512 398.461 171.184 398.461 172C398.461 172.816 398.733 173.488 399.277 174.032C399.821 174.576 400.493 174.848 401.277 174.848ZM408.534 168V169.344C408.998 168.352 409.83 167.856 411.03 167.856V169.312C410.342 169.28 409.766 169.456 409.27 169.856C408.774 170.256 408.534 170.88 408.534 171.76V176H407.142V168H408.534ZM421.032 167.792C422.824 167.792 424.04 169.04 424.04 171.024V176H422.648V171.072C422.648 169.84 421.96 169.12 420.888 169.12C419.688 169.12 418.92 169.904 418.92 171.552V176H417.528V171.072C417.528 169.84 416.872 169.12 415.832 169.12C414.664 169.12 413.784 169.936 413.784 171.552V176H412.392V168H413.784V169.072C414.328 168.224 415.128 167.792 416.168 167.792C417.24 167.792 418.024 168.24 418.52 169.152C419.08 168.24 419.912 167.792 421.032 167.792ZM433.25 174.272L435.554 168H437.042L433.778 176.496C433.09 178.304 431.826 179.312 430.226 179.2V177.904C431.202 177.984 431.922 177.44 432.386 176.272L432.53 175.968L429.042 168H430.53L433.25 174.272ZM444.644 174.992C443.828 175.808 442.82 176.208 441.652 176.208C440.484 176.208 439.476 175.808 438.66 174.992C437.844 174.176 437.444 173.184 437.444 172C437.444 170.816 437.844 169.824 438.66 169.008C439.476 168.192 440.484 167.792 441.652 167.792C442.82 167.792 443.828 168.192 444.644 169.008C445.46 169.824 445.876 170.816 445.876 172C445.876 173.184 445.46 174.176 444.644 174.992ZM441.652 174.848C442.452 174.848 443.124 174.576 443.668 174.032C444.212 173.488 444.484 172.816 444.484 172C444.484 171.184 444.212 170.512 443.668 169.968C443.124 169.424 442.452 169.152 441.652 169.152C440.868 169.152 440.196 169.424 439.652 169.968C439.108 170.512 438.836 171.184 438.836 172C438.836 172.816 439.108 173.488 439.652 174.032C440.196 174.576 440.868 174.848 441.652 174.848ZM453.037 172.24V168H454.429V176H453.037V174.848C452.477 175.76 451.613 176.208 450.445 176.208C448.573 176.208 447.341 174.944 447.341 172.912V168H448.733V172.832C448.733 174.128 449.485 174.88 450.717 174.88C452.109 174.88 453.037 174.032 453.037 172.24ZM457.94 168V169.344C458.404 168.352 459.236 167.856 460.436 167.856V169.312C459.748 169.28 459.172 169.456 458.676 169.856C458.18 170.256 457.94 170.88 457.94 171.76V176H456.548V168H457.94ZM467.19 176H465.798V164.32H467.19V176ZM476.066 174.992C475.25 175.808 474.242 176.208 473.074 176.208C471.906 176.208 470.898 175.808 470.082 174.992C469.266 174.176 468.866 173.184 468.866 172C468.866 170.816 469.266 169.824 470.082 169.008C470.898 168.192 471.906 167.792 473.074 167.792C474.242 167.792 475.25 168.192 476.066 169.008C476.882 169.824 477.298 170.816 477.298 172C477.298 173.184 476.882 174.176 476.066 174.992ZM473.074 174.848C473.874 174.848 474.546 174.576 475.09 174.032C475.634 173.488 475.906 172.816 475.906 172C475.906 171.184 475.634 170.512 475.09 169.968C474.546 169.424 473.874 169.152 473.074 169.152C472.29 169.152 471.618 169.424 471.074 169.968C470.53 170.512 470.258 171.184 470.258 172C470.258 172.816 470.53 173.488 471.074 174.032C471.618 174.576 472.29 174.848 473.074 174.848ZM482.923 167.792C484.795 167.792 486.027 169.056 486.027 171.088V176H484.635V171.168C484.635 169.872 483.883 169.12 482.651 169.12C481.259 169.12 480.331 169.968 480.331 171.76V176H478.939V168H480.331V169.152C480.891 168.24 481.755 167.792 482.923 167.792ZM494.61 169.376V168H495.986V175.664C495.986 176.848 495.586 177.76 494.786 178.416C493.986 179.072 493.026 179.408 491.906 179.408C490.114 179.408 488.77 178.72 488.114 177.456L489.33 176.768C489.762 177.664 490.642 178.112 491.938 178.112C493.602 178.112 494.61 177.184 494.61 175.664V174.528C493.906 175.6 492.898 176.128 491.602 176.128C490.466 176.128 489.49 175.728 488.706 174.912C487.922 174.096 487.522 173.12 487.522 171.952C487.522 170.784 487.922 169.808 488.706 169.008C489.49 168.192 490.466 167.792 491.602 167.792C492.914 167.792 493.922 168.32 494.61 169.376ZM494.61 171.952C494.61 171.152 494.338 170.48 493.794 169.936C493.25 169.392 492.578 169.12 491.762 169.12C490.946 169.12 490.274 169.392 489.73 169.936C489.186 170.48 488.914 171.152 488.914 171.952C488.914 172.768 489.186 173.44 489.73 173.984C490.274 174.528 490.946 174.8 491.762 174.8C492.578 174.8 493.25 174.528 493.794 173.984C494.338 173.44 494.61 172.768 494.61 171.952ZM502.095 172.24V164.8H503.583V172.176C503.583 173.76 504.559 174.752 506.303 174.752C508.047 174.752 509.023 173.76 509.023 172.176V164.8H510.495V172.24C510.495 173.44 510.111 174.416 509.327 175.136C508.543 175.856 507.535 176.208 506.303 176.208C505.071 176.208 504.047 175.856 503.263 175.136C502.479 174.416 502.095 173.44 502.095 172.24ZM521.058 176H519.41L516.898 171.712H514.258V176H512.77V164.8H517.25C518.21 164.8 519.026 165.136 519.714 165.824C520.402 166.496 520.738 167.312 520.738 168.272C520.738 168.992 520.514 169.664 520.082 170.256C519.65 170.848 519.106 171.28 518.418 171.52L521.058 176ZM517.25 166.192H514.258V170.368H517.25C517.81 170.368 518.274 170.16 518.658 169.76C519.058 169.344 519.25 168.848 519.25 168.272C519.25 167.696 519.058 167.2 518.658 166.8C518.274 166.4 517.81 166.192 517.25 166.192ZM524.04 164.8V174.592H528.872V176H522.552V164.8H524.04ZM531.42 170.16C531.42 170.784 532.124 171.12 533.004 171.36C534.252 171.632 535.916 172.096 535.9 173.808C535.9 174.528 535.612 175.12 535.052 175.552C534.492 175.984 533.788 176.208 532.908 176.208C531.356 176.208 530.188 175.472 529.724 174.336L530.924 173.648C531.18 174.416 531.932 174.896 532.908 174.896C533.82 174.896 534.492 174.56 534.492 173.808C534.492 173.184 533.788 172.832 532.908 172.624C531.644 172.288 530.012 171.872 530.012 170.176C530.012 169.488 530.284 168.912 530.812 168.464C531.356 168.016 532.028 167.792 532.844 167.792C534.14 167.792 535.212 168.416 535.724 169.456L534.556 170.112C534.268 169.424 533.692 169.088 532.844 169.088C532.06 169.088 531.42 169.472 531.42 170.16ZM542.252 166.544C541.724 166.544 541.308 166.128 541.308 165.616C541.308 165.104 541.724 164.672 542.252 164.672C542.764 164.672 543.18 165.104 543.18 165.616C543.18 166.128 542.764 166.544 542.252 166.544ZM542.94 176H541.548V168H542.94V176ZM549.048 167.792C550.92 167.792 552.152 169.056 552.152 171.088V176H550.76V171.168C550.76 169.872 550.008 169.12 548.776 169.12C547.384 169.12 546.456 169.968 546.456 171.76V176H545.064V168H546.456V169.152C547.016 168.24 547.88 167.792 549.048 167.792ZM558.447 168V169.344H556.319V173.68C556.319 174.912 557.023 174.816 558.447 174.752V176C556.015 176.32 554.927 175.664 554.927 173.68V169.344H553.343V168H554.927V166.176L556.319 165.76V168H558.447ZM566.441 174.992C565.625 175.808 564.617 176.208 563.449 176.208C562.281 176.208 561.273 175.808 560.457 174.992C559.641 174.176 559.241 173.184 559.241 172C559.241 170.816 559.641 169.824 560.457 169.008C561.273 168.192 562.281 167.792 563.449 167.792C564.617 167.792 565.625 168.192 566.441 169.008C567.257 169.824 567.673 170.816 567.673 172C567.673 173.184 567.257 174.176 566.441 174.992ZM563.449 174.848C564.249 174.848 564.921 174.576 565.465 174.032C566.009 173.488 566.281 172.816 566.281 172C566.281 171.184 566.009 170.512 565.465 169.968C564.921 169.424 564.249 169.152 563.449 169.152C562.665 169.152 561.993 169.424 561.449 169.968C560.905 170.512 560.633 171.184 560.633 172C560.633 172.816 560.905 173.488 561.449 174.032C561.993 174.576 562.665 174.848 563.449 174.848ZM577.042 176.208C575.842 176.208 574.834 175.808 574.018 174.992C573.218 174.176 572.818 173.184 572.818 172C572.818 170.8 573.218 169.808 574.018 169.008C574.834 168.192 575.842 167.792 577.042 167.792C578.594 167.792 579.97 168.592 580.61 169.856L579.122 170.72C578.754 169.952 577.986 169.488 577.026 169.488C576.322 169.488 575.73 169.728 575.25 170.208C574.786 170.688 574.546 171.28 574.546 172C574.546 172.72 574.786 173.312 575.25 173.792C575.73 174.272 576.322 174.512 577.026 174.512C577.97 174.512 578.77 174.032 579.154 173.28L580.642 174.128C579.954 175.408 578.594 176.208 577.042 176.208ZM585.542 176.208C584.374 176.208 583.366 175.808 582.55 174.992C581.734 174.176 581.318 173.184 581.318 172C581.318 170.816 581.734 169.824 582.55 169.008C583.366 168.192 584.374 167.792 585.542 167.792C586.726 167.792 587.718 168.192 588.534 169.008C589.35 169.824 589.766 170.816 589.766 172C589.766 173.184 589.35 174.176 588.534 174.992C587.718 175.808 586.726 176.208 585.542 176.208ZM583.766 173.808C584.246 174.288 584.838 174.528 585.542 174.528C586.246 174.528 586.838 174.288 587.318 173.808C587.798 173.328 588.038 172.72 588.038 172C588.038 171.28 587.798 170.672 587.318 170.192C586.838 169.712 586.246 169.472 585.542 169.472C584.838 169.472 584.246 169.712 583.766 170.192C583.286 170.672 583.046 171.28 583.046 172C583.046 172.72 583.286 173.328 583.766 173.808ZM595.536 167.792C597.376 167.792 598.608 169.04 598.608 171.088V176H596.88V171.264C596.88 170.064 596.192 169.408 595.088 169.408C593.872 169.408 593.056 170.16 593.056 171.712V176H591.328V168H593.056V169.024C593.584 168.208 594.4 167.792 595.536 167.792ZM604.245 176.208C603.045 176.208 602.037 175.808 601.221 174.992C600.421 174.176 600.021 173.184 600.021 172C600.021 170.8 600.421 169.808 601.221 169.008C602.037 168.192 603.045 167.792 604.245 167.792C605.797 167.792 607.173 168.592 607.813 169.856L606.325 170.72C605.957 169.952 605.189 169.488 604.229 169.488C603.525 169.488 602.933 169.728 602.453 170.208C601.989 170.688 601.749 171.28 601.749 172C601.749 172.72 601.989 173.312 602.453 173.792C602.933 174.272 603.525 174.512 604.229 174.512C605.173 174.512 605.973 174.032 606.357 173.28L607.845 174.128C607.157 175.408 605.797 176.208 604.245 176.208ZM610.726 166.48C610.294 166.912 609.622 166.912 609.174 166.48C608.742 166.032 608.742 165.36 609.174 164.928C609.606 164.48 610.31 164.48 610.742 164.928C611.174 165.36 611.174 166.032 610.726 166.48ZM610.822 176H609.094V168H610.822V176ZM614.333 170.208C614.333 170.736 615.005 171.008 615.837 171.248C617.069 171.52 618.669 172.032 618.637 173.744C618.637 174.512 618.333 175.12 617.741 175.552C617.149 175.984 616.413 176.208 615.517 176.208C613.933 176.208 612.765 175.504 612.253 174.336L613.741 173.472C614.013 174.24 614.605 174.624 615.517 174.624C616.429 174.624 616.877 174.32 616.877 173.728C616.877 173.216 616.205 172.912 615.357 172.704C614.157 172.4 612.541 171.92 612.573 170.24C612.573 169.504 612.845 168.912 613.405 168.464C613.965 168.016 614.669 167.792 615.501 167.792C616.829 167.792 617.901 168.416 618.461 169.456L617.005 170.272C616.733 169.664 616.221 169.36 615.501 169.36C614.845 169.36 614.333 169.648 614.333 170.208ZM627.681 172.736H621.313C621.569 173.952 622.545 174.624 623.873 174.624C624.785 174.624 625.473 174.288 625.937 173.632L627.361 174.464C626.577 175.632 625.409 176.208 623.857 176.208C622.561 176.208 621.505 175.808 620.705 175.024C619.905 174.224 619.505 173.216 619.505 172C619.505 170.8 619.905 169.808 620.689 169.008C621.473 168.192 622.497 167.792 623.729 167.792C624.897 167.792 625.857 168.208 626.609 169.024C627.361 169.84 627.745 170.848 627.745 172.016C627.745 172.192 627.729 172.432 627.681 172.736ZM621.297 171.328H626.001C625.761 170.032 624.849 169.36 623.713 169.36C622.433 169.36 621.537 170.112 621.297 171.328ZM314.25 193.376V192H315.642V200H314.25V198.624C313.562 199.68 312.554 200.208 311.226 200.208C310.106 200.208 309.146 199.808 308.362 198.992C307.578 198.176 307.178 197.168 307.178 196C307.178 194.832 307.578 193.84 308.362 193.024C309.146 192.208 310.106 191.792 311.226 191.792C312.554 191.792 313.562 192.32 314.25 193.376ZM311.402 198.864C312.218 198.864 312.89 198.592 313.434 198.048C313.978 197.488 314.25 196.816 314.25 196C314.25 195.184 313.978 194.512 313.434 193.968C312.89 193.408 312.218 193.136 311.402 193.136C310.602 193.136 309.93 193.408 309.386 193.968C308.842 194.512 308.57 195.184 308.57 196C308.57 196.816 308.842 197.488 309.386 198.048C309.93 198.592 310.602 198.864 311.402 198.864ZM321.735 191.792C323.607 191.792 324.839 193.056 324.839 195.088V200H323.447V195.168C323.447 193.872 322.695 193.12 321.463 193.12C320.071 193.12 319.143 193.968 319.143 195.76V200H317.751V192H319.143V193.152C319.703 192.24 320.567 191.792 321.735 191.792ZM333.407 193.376V188.8H334.799V200H333.407V198.624C332.719 199.68 331.711 200.208 330.383 200.208C329.263 200.208 328.303 199.808 327.519 198.992C326.735 198.176 326.335 197.168 326.335 196C326.335 194.832 326.735 193.84 327.519 193.024C328.303 192.208 329.263 191.792 330.383 191.792C331.711 191.792 332.719 192.32 333.407 193.376ZM330.559 198.864C331.375 198.864 332.047 198.592 332.591 198.048C333.135 197.488 333.407 196.816 333.407 196C333.407 195.184 333.135 194.512 332.591 193.968C332.047 193.408 331.375 193.136 330.559 193.136C329.759 193.136 329.087 193.408 328.543 193.968C327.999 194.512 327.727 195.184 327.727 196C327.727 196.816 327.999 197.488 328.543 198.048C329.087 198.592 329.759 198.864 330.559 198.864ZM342.412 194.208C342.412 194.736 343.084 195.008 343.916 195.248C345.148 195.52 346.748 196.032 346.716 197.744C346.716 198.512 346.412 199.12 345.82 199.552C345.228 199.984 344.492 200.208 343.596 200.208C342.012 200.208 340.844 199.504 340.332 198.336L341.82 197.472C342.092 198.24 342.684 198.624 343.596 198.624C344.508 198.624 344.956 198.32 344.956 197.728C344.956 197.216 344.284 196.912 343.436 196.704C342.236 196.4 340.62 195.92 340.652 194.24C340.652 193.504 340.924 192.912 341.484 192.464C342.044 192.016 342.748 191.792 343.58 191.792C344.908 191.792 345.98 192.416 346.54 193.456L345.084 194.272C344.812 193.664 344.3 193.36 343.58 193.36C342.924 193.36 342.412 193.648 342.412 194.208ZM352.349 191.792C354.189 191.792 355.421 193.04 355.421 195.088V200H353.693V195.264C353.693 194.064 353.005 193.408 351.901 193.408C350.685 193.408 349.869 194.16 349.869 195.712V200H348.141V188.8H349.869V193.024C350.397 192.208 351.213 191.792 352.349 191.792ZM363.617 193.136V192H365.345V200H363.617V198.848C362.961 199.76 362.033 200.208 360.817 200.208C359.713 200.208 358.785 199.808 358.001 198.992C357.217 198.176 356.833 197.168 356.833 196C356.833 194.816 357.217 193.824 358.001 193.008C358.785 192.192 359.713 191.792 360.817 191.792C362.033 191.792 362.961 192.24 363.617 193.136ZM359.281 197.84C359.761 198.32 360.369 198.56 361.089 198.56C361.809 198.56 362.417 198.32 362.897 197.84C363.377 197.344 363.617 196.736 363.617 196C363.617 195.264 363.377 194.656 362.897 194.176C362.417 193.68 361.809 193.44 361.089 193.44C360.369 193.44 359.761 193.68 359.281 194.176C358.801 194.656 358.561 195.264 358.561 196C358.561 196.736 358.801 197.344 359.281 197.84ZM369.088 192V193.344C369.52 192.352 370.352 191.856 371.552 191.856V193.728C370.896 193.68 370.32 193.84 369.824 194.208C369.328 194.56 369.088 195.152 369.088 195.968V200H367.36V192H369.088ZM380.181 196.736H373.813C374.069 197.952 375.045 198.624 376.373 198.624C377.285 198.624 377.973 198.288 378.437 197.632L379.861 198.464C379.077 199.632 377.909 200.208 376.357 200.208C375.061 200.208 374.005 199.808 373.205 199.024C372.405 198.224 372.005 197.216 372.005 196C372.005 194.8 372.405 193.808 373.189 193.008C373.973 192.192 374.997 191.792 376.229 191.792C377.397 191.792 378.357 192.208 379.109 193.024C379.861 193.84 380.245 194.848 380.245 196.016C380.245 196.192 380.229 196.432 380.181 196.736ZM373.797 195.328H378.501C378.261 194.032 377.349 193.36 376.213 193.36C374.933 193.36 374.037 194.112 373.797 195.328ZM388.055 193.136V192H389.783V200H388.055V198.848C387.399 199.76 386.471 200.208 385.255 200.208C384.151 200.208 383.223 199.808 382.439 198.992C381.655 198.176 381.271 197.168 381.271 196C381.271 194.816 381.655 193.824 382.439 193.008C383.223 192.192 384.151 191.792 385.255 191.792C386.471 191.792 387.399 192.24 388.055 193.136ZM383.719 197.84C384.199 198.32 384.807 198.56 385.527 198.56C386.247 198.56 386.855 198.32 387.335 197.84C387.815 197.344 388.055 196.736 388.055 196C388.055 195.264 387.815 194.656 387.335 194.176C386.855 193.68 386.247 193.44 385.527 193.44C384.807 193.44 384.199 193.68 383.719 194.176C383.239 194.656 382.999 195.264 382.999 196C382.999 196.736 383.239 197.344 383.719 197.84ZM396.325 191.792C397.429 191.792 398.357 192.192 399.141 193.008C399.925 193.824 400.309 194.816 400.309 196C400.309 197.168 399.925 198.176 399.141 198.992C398.357 199.808 397.429 200.208 396.325 200.208C395.109 200.208 394.181 199.76 393.525 198.848V200H391.797V188.8H393.525V193.136C394.181 192.24 395.109 191.792 396.325 191.792ZM394.245 197.84C394.725 198.32 395.333 198.56 396.053 198.56C396.773 198.56 397.381 198.32 397.861 197.84C398.341 197.344 398.581 196.736 398.581 196C398.581 195.264 398.341 194.656 397.861 194.176C397.381 193.68 396.773 193.44 396.053 193.44C395.333 193.44 394.725 193.68 394.245 194.176C393.765 194.656 393.525 195.264 393.525 196C393.525 196.736 393.765 197.344 394.245 197.84ZM403.603 200H401.875V188.32H403.603V200ZM413.338 196.736H406.97C407.226 197.952 408.202 198.624 409.53 198.624C410.442 198.624 411.13 198.288 411.594 197.632L413.018 198.464C412.234 199.632 411.066 200.208 409.514 200.208C408.218 200.208 407.162 199.808 406.362 199.024C405.562 198.224 405.162 197.216 405.162 196C405.162 194.8 405.562 193.808 406.346 193.008C407.13 192.192 408.154 191.792 409.386 191.792C410.554 191.792 411.514 192.208 412.266 193.024C413.018 193.84 413.402 194.848 413.402 196.016C413.402 196.192 413.386 196.432 413.338 196.736ZM406.954 195.328H411.658C411.418 194.032 410.506 193.36 409.37 193.36C408.09 193.36 407.194 194.112 406.954 195.328ZM420.65 200H418.922V188.32H420.65V200ZM424.288 190.48C423.856 190.912 423.184 190.912 422.736 190.48C422.304 190.032 422.304 189.36 422.736 188.928C423.168 188.48 423.872 188.48 424.304 188.928C424.736 189.36 424.736 190.032 424.288 190.48ZM424.384 200H422.656V192H424.384V200ZM430.599 191.792C432.439 191.792 433.671 193.04 433.671 195.088V200H431.943V195.264C431.943 194.064 431.255 193.408 430.151 193.408C428.935 193.408 428.119 194.16 428.119 195.712V200H426.391V192H428.119V193.024C428.647 192.208 429.463 191.792 430.599 191.792ZM438.955 195.92L442.603 200H440.539L437.259 196.304V200H435.531V188.8H437.259V195.536L440.363 192H442.475L438.955 195.92ZM444.755 194.208C444.755 194.736 445.427 195.008 446.259 195.248C447.491 195.52 449.091 196.032 449.059 197.744C449.059 198.512 448.755 199.12 448.163 199.552C447.571 199.984 446.835 200.208 445.939 200.208C444.355 200.208 443.187 199.504 442.675 198.336L444.163 197.472C444.435 198.24 445.027 198.624 445.939 198.624C446.851 198.624 447.299 198.32 447.299 197.728C447.299 197.216 446.627 196.912 445.779 196.704C444.579 196.4 442.963 195.92 442.995 194.24C442.995 193.504 443.267 192.912 443.827 192.464C444.387 192.016 445.091 191.792 445.923 191.792C447.251 191.792 448.323 192.416 448.883 193.456L447.427 194.272C447.155 193.664 446.643 193.36 445.923 193.36C445.267 193.36 444.755 193.648 444.755 194.208ZM462.29 198.096L464.05 192H465.506L463.026 200H461.602L459.73 194.08L457.858 200H456.434L453.954 192H455.41L457.17 198.08L459.058 192H460.402L462.29 198.096ZM467.643 190.544C467.115 190.544 466.699 190.128 466.699 189.616C466.699 189.104 467.115 188.672 467.643 188.672C468.155 188.672 468.571 189.104 468.571 189.616C468.571 190.128 468.155 190.544 467.643 190.544ZM468.331 200H466.939V192H468.331V200ZM474.806 192V193.344H472.678V197.68C472.678 198.912 473.382 198.816 474.806 198.752V200C472.374 200.32 471.286 199.664 471.286 197.68V193.344H469.702V192H471.286V190.176L472.678 189.76V192H474.806ZM480.438 191.792C482.31 191.792 483.542 193.056 483.542 195.088V200H482.15V195.168C482.15 193.872 481.398 193.12 480.166 193.12C478.774 193.12 477.846 193.968 477.846 195.76V200H476.454V188.8H477.846V193.152C478.406 192.24 479.27 191.792 480.438 191.792ZM490.542 190.544C490.014 190.544 489.598 190.128 489.598 189.616C489.598 189.104 490.014 188.672 490.542 188.672C491.054 188.672 491.47 189.104 491.47 189.616C491.47 190.128 491.054 190.544 490.542 190.544ZM489.838 200.48V192H491.23V200.48C491.23 202.544 490.174 203.552 488.142 203.408V202.064C489.31 202.176 489.838 201.712 489.838 200.48ZM498.865 196.24V192H500.257V200H498.865V198.848C498.305 199.76 497.441 200.208 496.273 200.208C494.401 200.208 493.169 198.944 493.169 196.912V192H494.561V196.832C494.561 198.128 495.313 198.88 496.545 198.88C497.937 198.88 498.865 198.032 498.865 196.24ZM503.561 194.16C503.561 194.784 504.265 195.12 505.145 195.36C506.393 195.632 508.057 196.096 508.041 197.808C508.041 198.528 507.753 199.12 507.193 199.552C506.633 199.984 505.929 200.208 505.049 200.208C503.497 200.208 502.329 199.472 501.865 198.336L503.065 197.648C503.321 198.416 504.073 198.896 505.049 198.896C505.961 198.896 506.633 198.56 506.633 197.808C506.633 197.184 505.929 196.832 505.049 196.624C503.785 196.288 502.153 195.872 502.153 194.176C502.153 193.488 502.425 192.912 502.953 192.464C503.497 192.016 504.169 191.792 504.985 191.792C506.281 191.792 507.353 192.416 507.865 193.456L506.697 194.112C506.409 193.424 505.833 193.088 504.985 193.088C504.201 193.088 503.561 193.472 503.561 194.16ZM513.728 192V193.344H511.6V197.68C511.6 198.912 512.304 198.816 513.728 198.752V200C511.296 200.32 510.208 199.664 510.208 197.68V193.344H508.624V192H510.208V190.176L511.6 189.76V192H513.728ZM523.535 188.592V189.936C522.127 189.824 521.423 190.432 521.423 191.76V192H523.535V193.344H521.423V200H520.031V193.344H518.751V192H520.031V191.76C520.031 189.6 521.279 188.448 523.535 188.592ZM531.838 196.64H525.134C525.406 198.064 526.51 198.896 528.03 198.896C529.086 198.896 529.854 198.512 530.334 197.728L531.518 198.4C530.734 199.6 529.566 200.208 527.998 200.208C526.734 200.208 525.694 199.808 524.894 199.024C524.11 198.224 523.71 197.216 523.71 196C523.71 194.8 524.094 193.792 524.878 192.992C525.662 192.192 526.67 191.792 527.902 191.792C529.07 191.792 530.03 192.208 530.766 193.04C531.518 193.856 531.886 194.848 531.886 196.016C531.886 196.224 531.87 196.432 531.838 196.64ZM527.902 193.104C526.414 193.104 525.374 194.016 525.134 195.424H530.478C530.238 193.904 529.182 193.104 527.902 193.104ZM540.837 198.096L542.597 192H544.053L541.573 200H540.149L538.277 194.08L536.405 200H534.981L532.501 192H533.957L535.717 198.08L537.605 192H538.949L540.837 198.096ZM553.246 200.208C552.046 200.208 551.038 199.808 550.238 199.008C549.438 198.192 549.038 197.2 549.038 196C549.038 194.8 549.438 193.808 550.238 193.008C551.038 192.192 552.046 191.792 553.246 191.792C554.83 191.792 556.158 192.608 556.782 193.888L555.614 194.56C555.214 193.712 554.318 193.152 553.246 193.152C552.446 193.152 551.774 193.424 551.23 193.968C550.702 194.512 550.43 195.184 550.43 196C550.43 196.8 550.702 197.472 551.23 198.016C551.774 198.56 552.446 198.832 553.246 198.832C554.318 198.832 555.214 198.288 555.662 197.44L556.846 198.128C556.158 199.392 554.798 200.208 553.246 200.208ZM559.612 200H558.22V188.32H559.612V200ZM562.44 190.544C561.912 190.544 561.496 190.128 561.496 189.616C561.496 189.104 561.912 188.672 562.44 188.672C562.952 188.672 563.368 189.104 563.368 189.616C563.368 190.128 562.952 190.544 562.44 190.544ZM563.128 200H561.736V192H563.128V200ZM569.011 200.208C567.811 200.208 566.803 199.808 566.003 199.008C565.203 198.192 564.803 197.2 564.803 196C564.803 194.8 565.203 193.808 566.003 193.008C566.803 192.192 567.811 191.792 569.011 191.792C570.595 191.792 571.923 192.608 572.547 193.888L571.379 194.56C570.979 193.712 570.083 193.152 569.011 193.152C568.211 193.152 567.539 193.424 566.995 193.968C566.467 194.512 566.195 195.184 566.195 196C566.195 196.8 566.467 197.472 566.995 198.016C567.539 198.56 568.211 198.832 569.011 198.832C570.083 198.832 570.979 198.288 571.427 197.44L572.611 198.128C571.923 199.392 570.563 200.208 569.011 200.208ZM576.802 195.872L580.754 200H579.026L575.378 196.208V200H573.986V188.8H575.378V195.536L578.834 192H580.626L576.802 195.872ZM582.639 194.16C582.639 194.784 583.343 195.12 584.223 195.36C585.471 195.632 587.135 196.096 587.119 197.808C587.119 198.528 586.831 199.12 586.271 199.552C585.711 199.984 585.007 200.208 584.127 200.208C582.575 200.208 581.407 199.472 580.943 198.336L582.143 197.648C582.399 198.416 583.151 198.896 584.127 198.896C585.039 198.896 585.711 198.56 585.711 197.808C585.711 197.184 585.007 196.832 584.127 196.624C582.863 196.288 581.231 195.872 581.231 194.176C581.231 193.488 581.503 192.912 582.031 192.464C582.575 192.016 583.247 191.792 584.063 191.792C585.359 191.792 586.431 192.416 586.943 193.456L585.775 194.112C585.487 193.424 584.911 193.088 584.063 193.088C583.279 193.088 582.639 193.472 582.639 194.16ZM589.475 200.176C588.899 200.176 588.435 199.712 588.435 199.136C588.435 198.56 588.899 198.096 589.475 198.096C590.067 198.096 590.515 198.56 590.515 199.136C590.515 199.712 590.067 200.176 589.475 200.176Z" fill="#141414"/>
<rect x="197.25" y="24.25" width="503.5" height="223.5" rx="23.75" stroke="#005AE2" stroke-width="0.5"/>
</g>
<defs>
<filter id="filter0_b_155_317" x="-15" y="-188" width="928" height="648" filterUnits="userSpaceOnUse" color-interpolation-filters="sRGB">
<feFlood flood-opacity="0" result="BackgroundImageFix"/>
<feGaussianBlur in="BackgroundImageFix" stdDeviation="106"/>
<feComposite in2="SourceAlpha" operator="in" result="effect1_backgroundBlur_155_317"/>
<feBlend mode="normal" in="SourceGraphic" in2="effect1_backgroundBlur_155_317" result="shape"/>
</filter>
</defs>
</svg>
